<mxfile host="app.diagrams.net" modified="2021-06-03T05:41:40.235Z" agent="5.0 (Windows)" etag="SzBmIlmjcfvtkHG6o27c" version="14.7.4" type="github">
  <diagram id="f6mjn6gYkaTQgwuH3HH0" name="Page-1">
    <mxGraphModel dx="1221" dy="644" grid="0" gridSize="10" guides="1" tooltips="1" connect="1" arrows="1" fold="1" page="1" pageScale="1" pageWidth="827" pageHeight="1169" background="#F1FAEE" math="0" shadow="0">
      <root>
        <mxCell id="0" />
        <mxCell id="1" parent="0" />
        <mxCell id="_VmjEYYl9RmjKs925Oam-14" style="edgeStyle=orthogonalEdgeStyle;curved=0;rounded=1;sketch=0;orthogonalLoop=1;jettySize=auto;html=1;exitX=0.5;exitY=1;exitDx=0;exitDy=0;entryX=0.5;entryY=0;entryDx=0;entryDy=0;fontColor=#1D3557;strokeColor=#457B9D;fillColor=#A8DADC;" edge="1" parent="1" source="_VmjEYYl9RmjKs925Oam-1" target="_VmjEYYl9RmjKs925Oam-2">
          <mxGeometry relative="1" as="geometry" />
        </mxCell>
        <mxCell id="_VmjEYYl9RmjKs925Oam-1" value="" style="rounded=0;whiteSpace=wrap;html=1;fillColor=#A8DADC;strokeColor=#457B9D;fontColor=#1D3557;" vertex="1" parent="1">
          <mxGeometry x="158" y="107" width="120" height="60" as="geometry" />
        </mxCell>
        <mxCell id="_VmjEYYl9RmjKs925Oam-15" style="edgeStyle=orthogonalEdgeStyle;curved=0;rounded=1;sketch=0;orthogonalLoop=1;jettySize=auto;html=1;exitX=0.5;exitY=1;exitDx=0;exitDy=0;entryX=0.5;entryY=0;entryDx=0;entryDy=0;fontColor=#1D3557;strokeColor=#457B9D;fillColor=#A8DADC;" edge="1" parent="1" source="_VmjEYYl9RmjKs925Oam-2" target="_VmjEYYl9RmjKs925Oam-3">
          <mxGeometry relative="1" as="geometry" />
        </mxCell>
        <mxCell id="_VmjEYYl9RmjKs925Oam-2" value="" style="rounded=0;whiteSpace=wrap;html=1;fillColor=#A8DADC;strokeColor=#457B9D;fontColor=#1D3557;" vertex="1" parent="1">
          <mxGeometry x="158" y="236" width="120" height="60" as="geometry" />
        </mxCell>
        <mxCell id="_VmjEYYl9RmjKs925Oam-16" style="edgeStyle=orthogonalEdgeStyle;curved=0;rounded=1;sketch=0;orthogonalLoop=1;jettySize=auto;html=1;exitX=0.5;exitY=1;exitDx=0;exitDy=0;entryX=0;entryY=0.5;entryDx=0;entryDy=0;fontColor=#1D3557;strokeColor=#457B9D;fillColor=#A8DADC;" edge="1" parent="1" source="_VmjEYYl9RmjKs925Oam-3" target="_VmjEYYl9RmjKs925Oam-5">
          <mxGeometry relative="1" as="geometry" />
        </mxCell>
        <mxCell id="_VmjEYYl9RmjKs925Oam-3" value="" style="rounded=0;whiteSpace=wrap;html=1;fillColor=#A8DADC;strokeColor=#457B9D;fontColor=#1D3557;" vertex="1" parent="1">
          <mxGeometry x="158" y="358" width="120" height="60" as="geometry" />
        </mxCell>
        <mxCell id="_VmjEYYl9RmjKs925Oam-17" style="edgeStyle=orthogonalEdgeStyle;curved=0;rounded=1;sketch=0;orthogonalLoop=1;jettySize=auto;html=1;exitX=0.5;exitY=1;exitDx=0;exitDy=0;entryX=1;entryY=0.5;entryDx=0;entryDy=0;fontColor=#1D3557;strokeColor=#457B9D;fillColor=#A8DADC;" edge="1" parent="1" source="_VmjEYYl9RmjKs925Oam-4" target="_VmjEYYl9RmjKs925Oam-5">
          <mxGeometry relative="1" as="geometry" />
        </mxCell>
        <mxCell id="_VmjEYYl9RmjKs925Oam-4" value="" style="rounded=0;whiteSpace=wrap;html=1;fillColor=#A8DADC;strokeColor=#457B9D;fontColor=#1D3557;" vertex="1" parent="1">
          <mxGeometry x="446" y="358" width="120" height="60" as="geometry" />
        </mxCell>
        <mxCell id="_VmjEYYl9RmjKs925Oam-22" style="edgeStyle=orthogonalEdgeStyle;curved=0;rounded=1;sketch=0;orthogonalLoop=1;jettySize=auto;html=1;exitX=0.5;exitY=1;exitDx=0;exitDy=0;entryX=0.5;entryY=0;entryDx=0;entryDy=0;fontColor=#1D3557;strokeColor=#457B9D;fillColor=#A8DADC;" edge="1" parent="1" source="_VmjEYYl9RmjKs925Oam-5" target="_VmjEYYl9RmjKs925Oam-7">
          <mxGeometry relative="1" as="geometry" />
        </mxCell>
        <mxCell id="_VmjEYYl9RmjKs925Oam-5" value="" style="rounded=0;whiteSpace=wrap;html=1;fillColor=#A8DADC;strokeColor=#457B9D;fontColor=#1D3557;" vertex="1" parent="1">
          <mxGeometry x="306" y="461" width="120" height="60" as="geometry" />
        </mxCell>
        <mxCell id="_VmjEYYl9RmjKs925Oam-6" value="" style="rounded=0;whiteSpace=wrap;html=1;fillColor=#A8DADC;strokeColor=#457B9D;fontColor=#1D3557;" vertex="1" parent="1">
          <mxGeometry x="309" y="687" width="120" height="60" as="geometry" />
        </mxCell>
        <mxCell id="_VmjEYYl9RmjKs925Oam-23" style="edgeStyle=orthogonalEdgeStyle;curved=0;rounded=1;sketch=0;orthogonalLoop=1;jettySize=auto;html=1;exitX=0.5;exitY=1;exitDx=0;exitDy=0;fontColor=#1D3557;strokeColor=#457B9D;fillColor=#A8DADC;" edge="1" parent="1" source="_VmjEYYl9RmjKs925Oam-7">
          <mxGeometry relative="1" as="geometry">
            <mxPoint x="366.0588235294117" y="686.5882352941178" as="targetPoint" />
          </mxGeometry>
        </mxCell>
        <mxCell id="_VmjEYYl9RmjKs925Oam-7" value="" style="rounded=0;whiteSpace=wrap;html=1;fillColor=#A8DADC;strokeColor=#457B9D;fontColor=#1D3557;" vertex="1" parent="1">
          <mxGeometry x="306" y="574" width="120" height="60" as="geometry" />
        </mxCell>
        <mxCell id="_VmjEYYl9RmjKs925Oam-10" value="&lt;pre&gt;&lt;b&gt;&lt;font style=&quot;font-size: 18px&quot;&gt;C/C++源码&lt;/font&gt;&lt;/b&gt;&lt;/pre&gt;" style="text;html=1;strokeColor=none;fillColor=none;align=center;verticalAlign=middle;whiteSpace=wrap;rounded=0;sketch=0;fontColor=#1D3557;" vertex="1" parent="1">
          <mxGeometry x="173" y="130" width="94" height="20" as="geometry" />
        </mxCell>
        <mxCell id="_VmjEYYl9RmjKs925Oam-11" value="&lt;b&gt;Android NDK&lt;/b&gt;" style="text;html=1;strokeColor=none;fillColor=none;align=center;verticalAlign=middle;whiteSpace=wrap;rounded=0;sketch=0;fontColor=#1D3557;" vertex="1" parent="1">
          <mxGeometry x="171" y="259" width="94" height="20" as="geometry" />
        </mxCell>
        <mxCell id="_VmjEYYl9RmjKs925Oam-12" value="&lt;pre&gt;&lt;font style=&quot;font-size: 12px&quot;&gt;&lt;b&gt;动态库.SO文件&lt;/b&gt;&lt;br&gt;&lt;/font&gt;&lt;/pre&gt;" style="text;html=1;strokeColor=none;fillColor=none;align=center;verticalAlign=middle;whiteSpace=wrap;rounded=0;sketch=0;fontColor=#1D3557;" vertex="1" parent="1">
          <mxGeometry x="172" y="380" width="94" height="20" as="geometry" />
        </mxCell>
        <mxCell id="_VmjEYYl9RmjKs925Oam-18" value="&lt;b&gt;Android代码调用&lt;/b&gt;" style="text;html=1;strokeColor=none;fillColor=none;align=center;verticalAlign=middle;whiteSpace=wrap;rounded=0;sketch=0;fontColor=#1D3557;" vertex="1" parent="1">
          <mxGeometry x="459" y="382" width="94" height="20" as="geometry" />
        </mxCell>
        <mxCell id="_VmjEYYl9RmjKs925Oam-19" value="&lt;b&gt;JNI框架&lt;/b&gt;" style="text;html=1;strokeColor=none;fillColor=none;align=center;verticalAlign=middle;whiteSpace=wrap;rounded=0;sketch=0;fontColor=#1D3557;" vertex="1" parent="1">
          <mxGeometry x="319" y="484" width="94" height="20" as="geometry" />
        </mxCell>
        <mxCell id="_VmjEYYl9RmjKs925Oam-20" value="&lt;b&gt;Android SDK&lt;/b&gt;" style="text;html=1;strokeColor=none;fillColor=none;align=center;verticalAlign=middle;whiteSpace=wrap;rounded=0;sketch=0;fontColor=#1D3557;" vertex="1" parent="1">
          <mxGeometry x="319" y="598" width="94" height="20" as="geometry" />
        </mxCell>
        <mxCell id="_VmjEYYl9RmjKs925Oam-21" value="&lt;b&gt;APK&lt;/b&gt;" style="text;html=1;strokeColor=none;fillColor=none;align=center;verticalAlign=middle;whiteSpace=wrap;rounded=0;sketch=0;fontColor=#1D3557;" vertex="1" parent="1">
          <mxGeometry x="319" y="710" width="94" height="20" as="geometry" />
        </mxCell>
      </root>
    </mxGraphModel>
  </diagram>
</mxfile>
